<?xml version="1.0" encoding="UTF-8"?>
<!DOCTYPE svg PUBLIC "-//W3C//DTD SVG 1.1//EN" "http://www.w3.org/Graphics/SVG/1.1/DTD/svg11.dtd">
<!-- Creator: CorelDRAW 2020 (64-Bit) -->
<svg xmlns="http://www.w3.org/2000/svg" xml:space="preserve" width="22.246mm" height="33.752mm" version="1.1" style="shape-rendering:geometricPrecision; text-rendering:geometricPrecision; image-rendering:optimizeQuality; fill-rule:evenodd; clip-rule:evenodd"
viewBox="0 0 2224.6 3375.2"
 xmlns:xlink="http://www.w3.org/1999/xlink"
 xmlns:xodm="http://www.corel.com/coreldraw/odm/2003">
 <defs>
  <style type="text/css">
   <![CDATA[
    .fil0 {fill:#403D39}
    .fil3 {fill:#CCC5B9}
    .fil1 {fill:#EB5E28}
    .fil4 {fill:#FEE2C1}
    .fil2 {fill:#FEFDFD}
   ]]>
  </style>
 </defs>
 <g id="Capa_x0020_1">
  <metadata id="CorelCorpID_0Corel-Layer"/>
  <g id="_2265813584832">
   <path class="fil0" d="M1242.99 5.75l1.22 141.15 -269.81 0 2.91 -141.15 -85.89 0c0,134.24 -7.47,260.53 -6.89,402.34l-7.21 197.4c0.33,143.56 -36.12,222.26 -210.95,189.77 -31.5,-5.86 -48.45,-13.23 -71.92,-26.86l-58.59 -47.24c-115.02,-123.42 -30.33,-218.62 -80.78,-335.51 -40.84,-94.61 -186.74,-119.27 -250.58,-8.47 -57.45,99.71 -71.86,216.91 -87.3,329.02 -6.24,45.28 6.86,144.06 15.19,185.58 11.69,58.19 27.58,105.84 43.88,160.74 65.88,221.86 173.51,471.19 109.31,675.75 -43.47,138.51 -165.41,453.66 -222.67,602.85 -84.79,220.9 -104.95,445.07 23.67,666.73 104,179.23 264.68,314.88 470.33,362.24 133.98,30.86 632.79,18.27 807.24,18.27 251.89,0 439.3,-11.81 626.2,-199.32 165.89,-166.44 239.92,-343.15 227.62,-598.05 -5,-103.6 -55.75,-224.16 -96.88,-319.41 -41.77,-96.74 -82.31,-193.76 -120.99,-288.23 -89.45,-218.42 -125.59,-267.51 -60.36,-495.95 57.41,-201.06 95.46,-285.13 72.93,-532.64 -9.66,-106.18 -29.87,-253.78 -136.46,-273.34 -60.42,-11.08 -107.42,38.45 -123.23,75.94 -10.67,25.32 -7.56,66.38 -12.75,93.09 -40.27,207.2 -251.45,288.1 -344.51,248.57 -31.5,-13.38 -34.94,-26.01 -40.12,-65.76 -13.38,-102.63 -5.35,-536.35 -16.69,-611.26 -9.66,-63.79 -3.06,-135.86 -2.98,-201.64 0.1,-75.46 -7.05,-126.48 -7.05,-204.61l-85.89 0z"/>
   <path class="fil1" d="M388 3196.58c25.09,26.91 61.83,36.23 97.82,51.12 36.08,14.92 78.69,26.74 120.9,34.14 116.22,20.39 780.21,15.99 898.57,10.91 190.46,-8.18 331.25,-81.27 426.91,-178.9 106.73,-108.92 184.89,-240.76 198.87,-407.97 19.04,-227.9 -118.47,-471.87 -210.27,-695.48 -27.51,-66.99 -66.56,-145.75 -85.63,-218.16 -52.6,-199.66 21.93,-324.69 68.74,-498.84 36.12,-134.39 43.5,-421.96 -24.89,-531.25 -78.31,-6.39 -23.74,36 -72.21,165.96 -63.81,171.12 -253.11,296.59 -451.38,241.05l-3.21 42.54c84.91,7 99.91,21.69 193.72,-1.75 96.32,-24.06 225.58,-141.51 299.49,-20.19 38.22,62.74 17.24,107.67 -2.69,169.46 -107.18,332.22 -73.18,383.83 49.43,679.68 42.2,101.85 84.27,203.59 126.72,303.83 37.1,87.59 108.13,252.76 19.41,327.07 -54.46,45.61 -113.65,21.19 -158.16,-12.02 -135.6,-101.16 -229.73,-194.95 -432.96,-204.59 -19.61,37.62 -8.27,70.07 -36.54,103.84 -24.43,29.18 -51.94,35.67 -98.14,42.54 -80.39,11.94 -159.72,23.57 -238.76,35.62 -61.47,9.37 -190.24,41.38 -240.69,11.23 -67.77,-40.51 -45.79,-143.39 -47.97,-229.68 -98.37,-40.53 -191.7,-151.04 -196.47,-294.11 -3.86,-116.04 77.46,-273.97 115.58,-377.85 48.65,-132.56 77.21,-270.06 69.87,-426.72 -5.76,-122.95 -108.68,-349.49 98.32,-333.27l1.94 -132c-79.68,24.53 -113.89,54.63 -224.19,28.6 -78.58,-18.55 -128.7,-51.66 -172.13,-95.33 -41.53,-41.76 -78.04,-101.03 -90.12,-176.26 -19.95,-124.27 25.24,-200.14 -56.85,-217.41 -135.34,317.77 -91.37,428.12 3.92,748.37 96.19,323.3 158.12,399.51 29.78,737.17 -56.97,149.88 -216.15,547.1 -235.37,681.98 -56.26,394.96 245.18,608.47 258.64,636.67z"/>
   <path class="fil2" d="M785.08 2416.74c8.4,-147.63 137.99,-113.65 268.62,-113.65 63.51,0 127.01,0.02 190.51,0 85.42,-0.03 95.95,-8.51 163.96,26.72 27.58,-109.83 110.1,-205.56 111.34,-334.22 1.41,-146.49 -0.06,-293.82 -0.13,-440.4l84.6 0c0,119.85 14.3,425.05 -8.14,523.22 -13.37,58.46 -50.85,135.28 -72.9,188.82 -22.56,54.76 -61.63,132.72 -75.76,185.96 203.23,9.64 297.36,103.43 432.96,204.59 44.51,33.21 103.7,57.63 158.16,12.02 88.72,-74.31 17.69,-239.48 -19.41,-327.07 -42.45,-100.24 -84.52,-201.98 -126.72,-303.83 -122.61,-295.85 -156.61,-347.46 -49.43,-679.68 19.93,-61.79 40.91,-106.72 2.69,-169.46 -73.91,-121.32 -203.17,-3.87 -299.49,20.19 -93.81,23.44 -108.81,8.75 -193.72,1.75 -7.44,71.03 -69.88,83.97 -128.95,84.03 -73.04,0.06 -146.09,-0.17 -219.14,-0.03 -171.45,0.34 -140.74,-108.36 -131.75,-310.91 -207,-16.22 -104.08,210.32 -98.32,333.27 7.34,156.66 -21.22,294.16 -69.87,426.72 -38.12,103.88 -119.44,261.81 -115.58,377.85 4.77,143.07 98.1,253.58 196.47,294.11z"/>
   <path class="fil0" d="M785.08 2416.74c2.18,86.29 -19.8,189.17 47.97,229.68 50.45,30.15 179.22,-1.86 240.69,-11.23 79.04,-12.05 158.37,-23.68 238.76,-35.62 46.2,-6.87 73.71,-13.36 98.14,-42.54 28.27,-33.77 16.93,-66.22 36.54,-103.84 14.13,-53.24 53.2,-131.2 75.76,-185.96 22.05,-53.54 59.53,-130.36 72.9,-188.82 22.44,-98.17 8.14,-403.37 8.14,-523.22l-84.6 0c0.07,146.58 1.54,293.91 0.13,440.4 -1.24,128.66 -83.76,224.39 -111.34,334.22 -68.01,-35.23 -78.54,-26.75 -163.96,-26.72 -63.5,0.02 -127,0 -190.51,0 -130.63,0 -260.22,-33.98 -268.62,113.65z"/>
   <path class="fil2" d="M388 3196.58c-13.46,-28.2 -314.9,-241.71 -258.64,-636.67 19.22,-134.88 178.4,-532.1 235.37,-681.98 128.34,-337.66 66.41,-413.87 -29.78,-737.17 -95.29,-320.25 -139.26,-430.6 -3.92,-748.37 -40.77,0.24 -48.49,16.88 -62.74,48.74 -41.36,92.45 -64.02,177.56 -66.76,284.14 -6.07,235.96 148.1,517.04 182.33,747.33 24.8,166.89 -8.17,262.03 -58.88,400.92 -56.33,154.27 -223.8,563.37 -239.71,697.31 -29.83,251.17 111.63,526.91 302.73,625.75z"/>
   <path class="fil3" d="M874.47 2569.13c38.25,17.96 180.76,-17.44 234.15,-25.48 217.08,-32.66 266.84,2.62 238.23,-149.89 -32.64,-11.3 -440.76,-11.3 -473.4,0 -7.18,38.24 -8.68,143.89 1.02,175.37z"/>
   <path class="fil3" d="M891.42 2204.15l438.34 0c31.03,0 37.92,-2.98 56.84,-14.92 9.34,-49.94 -1.09,-69.58 -57.72,-69.58l-437.46 0c-83.29,0 -88.36,84.5 0,84.5z"/>
   <path class="fil3" d="M891.42 1809.03l437.46 0c31.91,0 38.8,-2.97 57.72,-14.91 9.34,-49.95 -1.09,-69.59 -57.72,-69.59l-437.46 0c-83.29,0 -88.36,84.5 0,84.5z"/>
   <path class="fil3" d="M891.42 1470.36l437.46 0c31.91,0 38.8,-2.98 57.72,-14.92 9.34,-49.94 -1.09,-69.58 -57.72,-69.58l-437.46 0c-83.29,0 -88.36,84.5 0,84.5z"/>
   <polygon class="fil4" points="1242.99,5.75 977.31,5.75 974.4,146.9 1244.21,146.9 "/>
   <polygon class="fil4" points="967.2,485.57 1253.03,485.57 1251.35,400.83 969.04,400.83 "/>
   <polygon class="fil4" points="963.61,653.21 1258.32,654.79 1255.01,573.52 965.51,570.4 "/>
   <polygon class="fil4" points="970.81,314.4 1247.74,316.1 1247.8,234.99 971.68,231.75 "/>
   <path class="fil3" d="M1718.51 2261.6c-116.73,23.02 -77.73,183.77 31.25,161.85 99.31,-19.98 73.5,-182.5 -31.25,-161.85z"/>
   <path class="fil3" d="M1916.07 2430.94c-116.73,23.02 -77.73,183.77 31.25,161.84 99.31,-19.98 73.5,-182.5 -31.25,-161.84z"/>
   <polygon class="fil4" points="960.29,810.13 1260.08,810.13 1258.56,739.5 960.22,739.5 "/>
   <polygon class="fil4" points="957.3,948.81 1262.73,951.17 1261.92,898.22 958.45,894.87 "/>
   <polygon class="fil4" points="954.73,1210.82 990.16,1214.22 1230.1,1213.61 1264.02,1211.52 1268.59,1162.9 953.16,1162.84 "/>
   <polygon class="fil4" points="954.6,1078.25 1265.37,1078.25 1262.45,1039.15 955.36,1035.7 "/>
  </g>
 </g>
</svg>
